<svg id="Capa_1" enable-background="new 0 0 512 512" height="512" viewBox="0 0 512 512" width="512" xmlns="http://www.w3.org/2000/svg" xmlns:xlink="http://www.w3.org/1999/xlink"><linearGradient id="SVGID_1_" gradientUnits="userSpaceOnUse" x1="256" x2="256" y1="512" y2="0"><stop offset="0" stop-color="#fd5900"/><stop offset="1" stop-color="#ffde00"/></linearGradient><g><g><path d="m256 0c-140.959 0-256 115.049-256 256 0 140.959 115.05 256 256 256 140.96 0 256-115.049 256-256 0-140.96-115.049-256-256-256zm0 482c-124.617 0-226-101.383-226-226s101.383-226 226-226 226 101.383 226 226-101.383 226-226 226zm144.815-287.197-90.771-13.19-40.594-82.252c-2.526-5.12-7.741-8.361-13.45-8.361s-10.924 3.241-13.451 8.362l-40.594 82.252-90.771 13.19c-5.65.821-10.345 4.779-12.109 10.209s-.292 11.391 3.796 15.376l65.683 64.024-15.506 90.404c-.965 5.627 1.348 11.315 5.967 14.671 4.62 3.356 10.743 3.799 15.797 1.142l81.188-42.683 81.188 42.683c5.095 2.678 11.215 2.188 15.797-1.142 4.619-3.356 6.933-9.043 5.968-14.671l-15.506-90.404 65.682-64.024c4.089-3.985 5.561-9.946 3.796-15.376s-6.459-9.388-12.11-10.21zm-83.956 73.632c-3.536 3.446-5.149 8.411-4.314 13.277l11.701 68.22-61.266-32.209c-2.185-1.149-4.583-1.723-6.98-1.723s-4.795.574-6.98 1.723l-61.266 32.209 11.701-68.22c.834-4.866-.779-9.831-4.314-13.277l-49.565-48.314 68.498-9.953c4.885-.71 9.109-3.778 11.294-8.206l30.632-62.069 30.633 62.069c2.185 4.427 6.408 7.496 11.294 8.206l68.497 9.953z" fill="url(#SVGID_1_)"/></g></g></svg>